<svg width="300" height="300" viewBox="0 0 300 300" fill="none" xmlns="http://www.w3.org/2000/svg">
<circle cx="150" cy="150" r="150" fill="#00050D"/>
<path d="M53.2568 217.099C52.8712 212.816 56.0327 209.056 60.3183 208.702L195.199 197.534C212.812 196.075 228.376 209.173 229.96 226.774C231.545 244.376 218.553 259.838 200.94 261.296L114.342 268.467C83.3902 271.029 56.0416 248.031 53.2568 217.099Z" fill="#D9D9D9"/>
<path d="M190.745 150.015C212.221 148.175 231.252 164.08 233.252 185.542L238.733 244.355C239.433 251.86 233.912 258.466 226.402 259.109L190.125 262.219L180.779 161.939C180.214 155.874 184.676 150.536 190.745 150.015Z" fill="#D9D9D9"/>
<path d="M216.594 82.5783C217.135 86.9633 214.019 90.9568 209.634 91.498L55.431 110.53C52.8951 110.843 50.5856 109.041 50.2726 106.505C46.256 73.961 69.3821 44.3226 101.926 40.3059L190.878 29.3274C201.292 28.042 210.777 35.4426 212.062 45.8569L216.594 82.5783Z" fill="#D9D9D9"/>
<path d="M52.0199 122.54C53.9228 121.963 55.8895 123.049 56.4127 124.968L73.0181 185.86C74.5223 191.376 71.3068 197.194 65.8361 198.856C60.3653 200.517 54.711 197.392 53.2068 191.876L40.154 144.011C37.6688 134.898 42.9813 125.285 52.0199 122.54Z" fill="#D9D9D9"/>
<path d="M116.003 116.741C117.906 116.163 119.872 117.25 120.396 119.169L137.001 180.061C138.505 185.577 135.29 191.395 129.819 193.057C124.348 194.718 118.694 191.593 117.19 186.077L104.137 138.212C101.652 129.099 106.964 119.486 116.003 116.741Z" fill="#D9D9D9"/>
<path d="M86.806 132.379C88.7089 131.802 90.6756 132.888 91.1988 134.807L102.617 176.679C104.122 182.195 100.906 188.013 95.4354 189.675L95.074 189.784C89.8028 191.385 84.3548 188.374 82.9055 183.059L74.9401 153.85C72.4549 144.737 77.7674 135.124 86.806 132.379Z" fill="#D9D9D9"/>
<path d="M139.907 162.202C139.876 162.144 139.827 161.941 139.759 161.593C139.69 161.235 139.609 160.805 139.515 160.303C139.433 159.8 139.348 159.254 139.262 158.666C139.174 158.069 139.093 157.512 139.019 156.996C138.953 156.469 138.899 156.013 138.857 155.629C138.825 155.244 138.817 154.997 138.83 154.89C138.887 154.849 138.954 154.838 139.031 154.857C139.108 154.876 139.176 154.907 139.236 154.949C139.306 154.991 139.368 155.044 139.421 155.109C139.474 155.174 139.504 155.233 139.513 155.284L140.632 162.083C140.65 162.196 140.634 162.289 140.582 162.36C140.529 162.422 140.456 162.46 140.364 162.476C140.282 162.489 140.195 162.477 140.104 162.439C140.022 162.389 139.957 162.31 139.907 162.202ZM138.435 152.484C138.419 152.455 138.402 152.416 138.384 152.366C138.373 152.304 138.363 152.243 138.353 152.181C138.341 152.109 138.331 152.047 138.323 151.996C138.323 151.933 138.326 151.89 138.333 151.868C138.409 151.813 138.495 151.762 138.593 151.714C138.691 151.666 138.798 151.643 138.914 151.645C139.126 151.843 139.264 152.01 139.329 152.147C139.403 152.272 139.426 152.379 139.398 152.468C139.369 152.547 139.304 152.605 139.205 152.643C139.114 152.668 139.016 152.679 138.909 152.675C138.803 152.672 138.701 152.657 138.601 152.631C138.511 152.593 138.455 152.544 138.435 152.484ZM142.179 161.86C142.136 160.189 141.932 158.565 141.567 156.989C141.212 155.411 140.654 153.877 139.891 152.387C139.818 152.262 139.799 152.149 139.836 152.048C139.872 151.947 139.935 151.884 140.026 151.858C140.115 151.823 140.213 151.838 140.319 151.905C140.423 151.962 140.517 152.084 140.601 152.27C140.883 153.09 141.141 153.918 141.374 154.756C141.615 155.582 141.869 156.416 142.134 157.26C142.425 157.423 142.7 157.425 142.959 157.266C143.228 157.106 143.482 156.853 143.721 156.508C143.959 156.162 144.178 155.762 144.378 155.307C144.586 154.84 144.776 154.391 144.949 153.962C145.131 153.531 145.289 153.146 145.424 152.807C145.568 152.466 145.695 152.245 145.805 152.142C146.004 151.941 146.116 151.912 146.139 152.056C146.161 152.189 146.12 152.423 146.017 152.757C145.914 153.091 145.768 153.489 145.58 153.953C145.391 154.406 145.186 154.857 144.964 155.305C144.751 155.742 144.536 156.136 144.319 156.488C144.113 156.839 143.941 157.078 143.804 157.206C143.787 157.23 143.75 157.263 143.693 157.304C143.647 157.343 143.596 157.388 143.541 157.44C143.487 157.491 143.432 157.542 143.377 157.593C143.32 157.634 143.282 157.662 143.264 157.675L143.284 157.799C143.286 157.809 143.327 157.834 143.407 157.874C143.486 157.903 143.576 157.941 143.679 157.987C143.792 158.032 143.905 158.077 144.018 158.121C144.131 158.166 144.221 158.204 144.29 158.235C144.502 158.306 144.761 158.405 145.068 158.535C145.384 158.662 145.718 158.797 146.069 158.94C146.428 159.071 146.792 159.196 147.16 159.315C147.538 159.432 147.906 159.519 148.264 159.576C148.621 159.634 148.951 159.648 149.252 159.619C149.564 159.589 149.823 159.494 150.029 159.333C150.245 159.171 150.4 158.929 150.495 158.607C150.59 158.286 150.599 157.862 150.523 157.336L150.832 157.285C150.883 157.277 150.936 157.342 150.991 157.481C151.045 157.619 151.085 157.798 151.11 158.015C151.144 158.221 151.151 158.452 151.129 158.709C151.107 158.955 151.04 159.193 150.93 159.422C150.818 159.641 150.649 159.833 150.423 159.997C150.207 160.159 149.916 160.254 149.552 160.283C149.041 160.325 148.496 160.282 147.916 160.156C147.335 160.03 146.754 159.867 146.172 159.667C145.589 159.457 145.018 159.229 144.46 158.983C143.913 158.735 143.413 158.517 142.959 158.327C142.925 158.312 142.85 158.303 142.733 158.301C142.625 158.287 142.56 158.277 142.538 158.27L142.43 158.288C142.468 158.904 142.534 159.532 142.629 160.171C142.732 160.798 142.764 161.41 142.725 162.008C142.717 162.02 142.683 162.036 142.623 162.056C142.563 162.077 142.497 162.093 142.425 162.105C142.361 162.105 142.301 162.088 142.242 162.056C142.195 162.021 142.173 161.956 142.179 161.86ZM151.561 160.079C151.321 159.907 151.105 159.621 150.913 159.219C150.72 158.818 150.554 158.355 150.415 157.829C150.286 157.301 150.187 156.737 150.12 156.135C150.051 155.524 150.022 154.927 150.031 154.345C150.05 153.751 150.106 153.192 150.199 152.67C150.303 152.147 150.457 151.704 150.662 151.343C150.875 150.97 151.138 150.711 151.452 150.564C151.774 150.405 152.159 150.4 152.605 150.548C152.763 150.607 152.935 150.721 153.121 150.891C153.317 151.059 153.508 151.255 153.692 151.478C153.875 151.691 154.038 151.912 154.182 152.142C154.334 152.359 154.449 152.546 154.527 152.702C154.546 152.752 154.572 152.911 154.606 153.18C154.648 153.437 154.695 153.752 154.745 154.123C154.796 154.495 154.864 154.906 154.948 155.357C155.042 155.795 155.149 156.226 155.272 156.649C155.403 157.061 155.561 157.441 155.745 157.791C155.927 158.13 156.139 158.391 156.38 158.573C156.62 158.745 156.895 158.816 157.207 158.785C157.527 158.743 157.892 158.551 158.3 158.21C158.441 158.039 158.515 157.884 158.524 157.745C158.531 157.596 158.527 157.476 158.512 157.383C158.495 157.28 158.495 157.212 158.51 157.177C158.525 157.143 158.622 157.154 158.8 157.209C159.05 157.442 159.164 157.719 159.143 158.039C159.13 158.348 159.025 158.639 158.828 158.915C158.639 159.178 158.378 159.39 158.045 159.55C157.711 159.7 157.347 159.734 156.953 159.651C156.57 159.566 156.177 159.33 155.776 158.942C155.374 158.554 155.006 157.955 154.672 157.144C154.639 157.329 154.577 157.561 154.486 157.84C154.405 158.117 154.298 158.398 154.166 158.684C154.033 158.97 153.873 159.244 153.684 159.508C153.505 159.769 153.307 159.976 153.089 160.128C152.871 160.28 152.632 160.367 152.372 160.389C152.12 160.398 151.85 160.295 151.561 160.079ZM151.54 159.085C151.775 159.426 152.014 159.593 152.255 159.584C152.497 159.576 152.723 159.444 152.934 159.188C153.145 158.931 153.335 158.578 153.504 158.128C153.683 157.676 153.813 157.18 153.893 156.639C153.981 156.086 154.02 155.52 154.009 154.941C154.007 154.35 153.932 153.798 153.784 153.284C153.646 152.768 153.434 152.312 153.147 151.916C152.86 151.52 152.475 151.235 151.993 151.061C151.981 151.052 151.959 151.05 151.929 151.056C151.908 151.059 151.887 151.062 151.867 151.066C151.572 151.262 151.335 151.554 151.156 151.943C150.977 152.331 150.839 152.776 150.742 153.278C150.656 153.778 150.611 154.307 150.608 154.867C150.605 155.427 150.642 155.97 150.718 156.496C150.794 157.022 150.902 157.516 151.041 157.979C151.179 158.431 151.345 158.8 151.54 159.085ZM159.174 159.285C159.15 159.268 159.117 159.231 159.076 159.175C159.035 159.118 159.008 159.08 158.994 159.061C159.003 158.923 158.985 158.62 158.94 158.152C158.903 157.672 158.854 157.121 158.794 156.497C158.744 155.872 158.695 155.22 158.646 154.542C158.608 153.862 158.587 153.253 158.583 152.716C158.579 152.178 158.611 151.761 158.678 151.465C158.744 151.159 158.861 151.065 159.028 151.186C159.374 151.361 159.709 151.602 160.034 151.907C160.357 152.202 160.675 152.53 160.987 152.89C161.3 153.25 161.605 153.628 161.902 154.022C162.208 154.405 162.516 154.771 162.827 155.121C163.147 155.459 163.471 155.765 163.801 156.038C164.14 156.299 164.488 156.489 164.846 156.61L164.954 156.592C164.934 156.342 164.904 156.036 164.866 155.672C164.836 155.297 164.8 154.891 164.76 154.455C164.72 154.018 164.678 153.571 164.635 153.113C164.589 152.646 164.552 152.193 164.522 151.754C164.5 151.304 164.485 150.889 164.475 150.511C164.466 150.133 164.471 149.81 164.49 149.543C164.497 149.52 164.511 149.476 164.532 149.409C164.561 149.33 164.591 149.257 164.622 149.188C164.662 149.108 164.704 149.043 164.748 148.993C164.793 148.944 164.844 148.935 164.902 148.968L165.749 149.589C165.785 149.615 165.775 149.685 165.72 149.799C165.674 149.902 165.614 150.023 165.542 150.161C165.468 150.29 165.394 150.418 165.32 150.546C165.245 150.664 165.206 150.75 165.204 150.803C165.176 151.082 165.168 151.416 165.179 151.805C165.189 152.183 165.214 152.591 165.254 153.027C165.292 153.454 165.338 153.895 165.392 154.351C165.446 154.806 165.498 155.252 165.549 155.687C165.608 156.11 165.664 156.512 165.716 156.894C165.778 157.275 165.827 157.604 165.863 157.884C165.491 157.934 165.118 157.879 164.743 157.719C164.369 157.559 163.993 157.331 163.617 157.034C163.249 156.725 162.88 156.374 162.509 155.981C162.147 155.576 161.79 155.17 161.438 154.764C161.095 154.345 160.758 153.936 160.429 153.536C160.099 153.137 159.788 152.787 159.496 152.486L159.357 152.509C159.316 152.516 159.299 152.635 159.305 152.866C159.32 153.085 159.346 153.371 159.383 153.724C159.42 154.077 159.465 154.481 159.519 154.937C159.571 155.382 159.614 155.835 159.647 156.294C159.689 156.741 159.718 157.174 159.734 157.594C159.749 158.003 159.743 158.352 159.717 158.642C159.691 158.931 159.635 159.141 159.551 159.271C159.467 159.401 159.341 159.405 159.174 159.285ZM172.247 166.366C171.826 166.245 171.451 166.022 171.123 165.696C170.797 165.38 170.512 164.999 170.27 164.553C170.029 164.118 169.83 163.644 169.672 163.132C169.515 162.629 169.391 162.133 169.3 161.641C169.208 161.149 169.149 160.689 169.12 160.261C169.092 159.833 169.086 159.475 169.102 159.187C169.106 159.081 169.135 158.939 169.19 158.761C169.257 158.592 169.318 158.418 169.374 158.24C169.429 158.062 169.469 157.892 169.495 157.729C169.532 157.565 169.522 157.44 169.465 157.354L169.142 157.407C168.967 157.436 168.797 157.401 168.633 157.301C168.467 157.191 168.314 157.063 168.174 156.917C168.044 156.77 167.93 156.62 167.831 156.467C167.732 156.314 167.66 156.2 167.616 156.122C167.563 155.93 167.507 155.718 167.448 155.485C167.398 155.25 167.354 155.015 167.315 154.778C167.287 154.54 167.268 154.3 167.26 154.059C167.251 153.807 167.269 153.567 167.316 153.337C167.364 153.055 167.445 152.709 167.557 152.3C167.678 151.879 167.826 151.464 168.001 151.055C168.177 150.646 168.385 150.274 168.625 149.939C168.876 149.602 169.154 149.366 169.459 149.232C169.774 149.095 170.123 149.096 170.504 149.234C170.884 149.361 171.298 149.694 171.746 150.233C171.831 150.24 171.914 150.232 171.995 150.208C172.074 150.174 172.148 150.146 172.218 150.124C172.287 150.091 172.347 150.071 172.398 150.062C172.46 150.052 172.52 150.063 172.578 150.096C172.609 150.218 172.656 150.442 172.721 150.769C172.785 151.097 172.849 151.455 172.914 151.846C172.978 152.237 173.021 152.625 173.042 153.012C173.072 153.388 173.065 153.695 173.02 153.935C173.042 154.068 173.071 154.28 173.108 154.569C173.145 154.859 173.188 155.184 173.237 155.546C173.285 155.897 173.336 156.274 173.392 156.676C173.446 157.069 173.496 157.44 173.544 157.791C173.603 158.151 173.65 158.471 173.685 158.75C173.723 159.039 173.752 159.251 173.774 159.384C173.774 159.448 173.779 159.574 173.789 159.762C173.809 159.949 173.826 160.147 173.839 160.356C173.852 160.565 173.864 160.763 173.874 160.952C173.895 161.149 173.912 161.283 173.924 161.355C173.924 161.418 173.922 161.598 173.918 161.894C173.924 162.189 173.912 162.534 173.882 162.93C173.854 163.335 173.807 163.755 173.741 164.188C173.677 164.631 173.578 165.028 173.446 165.377C173.325 165.734 173.165 166.009 172.964 166.2C172.775 166.4 172.536 166.455 172.247 166.366ZM171.563 165.196C171.82 165.407 172.035 165.498 172.21 165.469C172.387 165.451 172.533 165.347 172.65 165.159C172.769 164.981 172.86 164.734 172.924 164.417C173 164.109 173.05 163.774 173.075 163.411C173.112 163.056 173.131 162.694 173.134 162.324C173.136 161.954 173.133 161.617 173.125 161.312C173.117 161.007 173.107 160.751 173.094 160.542C173.082 160.343 173.075 160.233 173.071 160.213C173.064 160.108 173.054 159.946 173.039 159.727C173.024 159.508 173.003 159.284 172.976 159.057C172.961 158.837 172.943 158.634 172.923 158.448C172.905 158.271 172.891 158.157 172.883 158.106C172.876 158.002 172.852 157.821 172.809 157.564C172.769 157.317 172.726 157.055 172.68 156.778C172.634 156.5 172.591 156.238 172.551 155.991C172.508 155.734 172.474 155.555 172.446 155.454L172.107 155.51L170.406 157.199C170.152 157.452 169.965 157.794 169.846 158.226C169.739 158.666 169.686 159.144 169.687 159.661C169.689 160.189 169.741 160.729 169.843 161.282C169.946 161.846 170.081 162.378 170.248 162.878C170.416 163.389 170.613 163.848 170.838 164.254C171.065 164.671 171.307 164.984 171.563 165.196ZM168.63 156.32C169.236 156.41 169.773 156.369 170.241 156.197C170.717 156.013 171.107 155.749 171.409 155.403C171.709 155.048 171.915 154.628 172.025 154.146C172.146 153.661 172.154 153.164 172.049 152.653C171.954 152.141 171.739 151.638 171.405 151.144C171.079 150.638 170.625 150.19 170.043 149.801C169.744 149.776 169.479 149.899 169.249 150.169C169.027 150.427 168.837 150.775 168.676 151.213C168.527 151.65 168.411 152.133 168.329 152.664C168.246 153.184 168.203 153.693 168.2 154.189C168.198 154.686 168.228 155.13 168.293 155.52C168.367 155.909 168.48 156.176 168.63 156.32Z" fill="white"/>
</svg>
